<svg width="56" height="48" fill="none" xmlns="http://www.w3.org/2000/svg"><g filter="url('#filter0_d_480_6538')"><rect x="52" width="40" height="48" rx="8" transform="rotate(90 52 0)" fill="#fff"/><path d="M38.55 19.095 24.617 5.82a1.25 1.25 0 0 0-1.725 0l-.015.015a1.15 1.15 0 0 0 0 1.667l13.12 12.5-13.12 12.496a1.15 1.15 0 0 0 0 1.667l.015.015a1.25 1.25 0 0 0 1.725 0L38.55 20.905a1.251 1.251 0 0 0 0-1.81Z" fill="#7EB101"/></g><defs><filter id="filter0_d_480_6538" x="0" y="0" width="56" height="48" filterUnits="userSpaceOnUse" color-interpolation-filters="sRGB"><feFlood flood-opacity="0" result="BackgroundImageFix"/><feColorMatrix in="SourceAlpha" values="0 0 0 0 0 0 0 0 0 0 0 0 0 0 0 0 0 0 127 0" result="hardAlpha"/><feOffset dy="4"/><feGaussianBlur stdDeviation="2"/><feComposite in2="hardAlpha" operator="out"/><feColorMatrix values="0 0 0 0 0 0 0 0 0 0 0 0 0 0 0 0 0 0 0.06 0"/><feBlend in2="BackgroundImageFix" result="effect1_dropShadow_480_6538"/><feBlend in="SourceGraphic" in2="effect1_dropShadow_480_6538" result="shape"/></filter></defs></svg>