<svg xmlns="http://www.w3.org/2000/svg" aria-hidden="true" style="width:0;height:0;position:absolute;overflow:hidden"><defs><symbol id="icon-cross" viewBox="0 0 30 32"><path d="m16.219 14.826 4.928-4.924a1.012 1.012 0 0 0-1.43-1.428l-4.928 4.873-4.958-4.954a1.013 1.013 0 0 0-1.43 1.428l4.948 5.005-4.846 4.782a1.002 1.002 0 0 0-.284 1.139 1.014 1.014 0 0 0 1.714.29l4.836-4.833 4.806 4.802a1.013 1.013 0 0 0 1.43-1.428l-4.786-4.751z"/></symbol><symbol id="icon-menu" viewBox="0 0 32 32"><path d="M2.666 8A1.335 1.335 0 0 1 4 6.666h24A1.33 1.33 0 0 1 29.333 8 1.333 1.333 0 0 1 28 9.334H4A1.335 1.335 0 0 1 2.666 8zm0 8.043A1.33 1.33 0 0 1 4 14.71h24a1.333 1.333 0 1 1 0 2.666H4a1.333 1.333 0 0 1-1.334-1.333zM4 22.752a1.337 1.337 0 0 0-1.334 1.333A1.33 1.33 0 0 0 4 25.418h24a1.333 1.333 0 1 0 0-2.666H4z"/></symbol><symbol id="icon-order" viewBox="0 0 32 32"><path fill="#fff" d="M29.714 13.714c0 7.574-6.14 13.714-13.714 13.714S2.286 21.288 2.286 13.714C2.286 6.14 8.426 0 16 0s13.714 6.14 13.714 13.714z" style="fill:var(--color2,#fff)"/><path fill="#7eb101" d="M15.714 5.333c1.156 0 2.143.403 2.962 1.21s1.229 1.787 1.229 2.943a4.219 4.219 0 0 1-1.639 3.353h-.648v-.952c.368-.292.651-.648.848-1.067s.295-.864.295-1.333c0-.838-.298-1.549-.895-2.133s-1.314-.876-2.152-.876c-.838 0-1.556.292-2.152.876s-.895 1.295-.895 2.133c0 .47.098.914.295 1.333s.479.775.848 1.067v1.371c-.711-.368-1.27-.889-1.676-1.562s-.61-1.409-.61-2.21c0-1.156.41-2.136 1.229-2.943s1.806-1.21 2.962-1.21zm-.723 16c-.216 0-.419-.041-.61-.124s-.356-.194-.495-.333l-3.924-3.924 1.067-1.105c.178-.178.378-.314.6-.41s.454-.111.695-.048l1.486.343v-6.21c0-.533.184-.984.552-1.352s.819-.552 1.352-.552c.533 0 .984.184 1.352.552s.552.819.552 1.352v3.276h.495c.064 0 .121.013.171.038s.108.051.171.076l2.819 1.371c.305.14.53.365.676.676s.187.632.124.962l-.686 4.152c-.064.368-.241.67-.533.905s-.622.352-.991.352h-4.876zm-.153-1.143h5.352l.819-4.743-3.486-1.733h-1.048V9.523c0-.229-.07-.413-.21-.552s-.324-.21-.552-.21-.413.07-.552.21a.746.746 0 0 0-.21.552v7.6l-2.933-.629-.438.438 3.257 3.257zm5.353 0z" style="fill:var(--color1,#7eb101)"/></symbol><symbol id="icon-spaceship" viewBox="0 0 32 32"><path fill="#fff" d="M32 16c0 8.837-7.163 16-16 16S0 24.837 0 16 7.163 0 16 0s16 7.163 16 16z" style="fill:var(--color2,#fff)"/><path fill="#7eb101" d="m9.489 14.422 2.356 1c.267-.533.552-1.059.856-1.578s.626-1.015.967-1.489l-1.756-.356-2.422 2.422zm3.422 1.8 2.956 2.956c.844-.385 1.637-.822 2.378-1.311s1.341-.963 1.8-1.422c1.2-1.2 2.081-2.43 2.644-3.689s.867-2.682.911-4.267c-1.585.044-3.007.348-4.267.911s-2.489 1.444-3.689 2.644c-.459.459-.933 1.059-1.422 1.8s-.926 1.533-1.311 2.378zM18 14.089c-.296-.296-.444-.663-.444-1.1s.148-.804.444-1.1c.296-.296.663-.444 1.1-.444s.804.148 1.1.444c.296.296.444.663.444 1.1s-.148.804-.444 1.1c-.296.296-.663.444-1.1.444s-.804-.148-1.1-.444zm-.333 8.511 2.422-2.422-.356-1.756c-.474.341-.97.663-1.489.967s-1.044.589-1.578.856l1 2.356zm7.244-15.422c.133 2.015-.119 3.852-.756 5.511s-1.689 3.222-3.156 4.689l-.089.089.489 2.444c.044.222.033.437-.033.644s-.181.393-.344.556l-3.8 3.822-1.889-4.4-3.778-3.778-4.4-1.889 3.822-3.8c.163-.163.348-.278.556-.344s.422-.078.644-.033l2.444.489c.015-.015.03-.026.044-.033s.03-.019.044-.033c1.467-1.467 3.03-2.522 4.689-3.167s3.496-.9 5.511-.767zM8.644 19.444c.518-.519 1.152-.781 1.9-.789s1.381.248 1.9.767c.518.518.774 1.152.767 1.9s-.27 1.381-.789 1.9c-.385.385-.981.704-1.789.956s-2.019.489-3.633.711c.222-1.615.456-2.83.7-3.644s.559-1.415.944-1.8zm.934.956c-.207.222-.393.57-.556 1.044s-.304 1.081-.422 1.822c.741-.118 1.348-.259 1.822-.422s.822-.348 1.044-.556c.281-.252.426-.567.433-.944s-.122-.707-.389-.989c-.282-.267-.611-.396-.989-.389s-.693.152-.944.433z" style="fill:var(--color1,#7eb101)"/></symbol><symbol id="icon-logo" viewBox="0 0 41 32"><path fill="#ffe550" d="M14.142 6.456c1.011-1.982 3.836-1.982 4.847 0l1.279 2.51a2.724 2.724 0 0 0 1.997 1.453l2.772.441c2.196.35 3.07 3.049 1.497 4.625l-1.978 1.983a2.733 2.733 0 0 0-.764 2.356l.437 2.773c.347 2.2-1.94 3.868-3.921 2.859l-2.51-1.278a2.718 2.718 0 0 0-2.465 0l-2.51 1.278c-1.981 1.009-4.267-.659-3.921-2.859l.437-2.773a2.734 2.734 0 0 0-.764-2.356l-1.978-1.983c-1.572-1.576-.699-4.276 1.497-4.625l2.772-.441a2.72 2.72 0 0 0 1.996-1.453l1.279-2.51z" style="fill:var(--color3,#ffe550)"/><path fill="#2c2c2c" d="m1.116 20.357-.021.005a31 31 0 0 1-.011.9c-.003.524-.004.868-.002 1.032 0 .157-.004.285-.01.384l.001.336a2.28 2.28 0 0 1-.019.296l-.018.206c-.014.13-.042.201-.084.211-.092.022-.235-.049-.431-.212-.197-.17-.31-.319-.341-.447s-.038-1.06-.024-2.798c.021-1.74-.025-2.884-.14-3.432a.421.421 0 0 1 .014-.273c.035-.165.219-.321.55-.467.338-.147.843-.3 1.514-.459.678-.161 1.216-.251 1.614-.27.405-.021.623.032.653.159.02.085-.026.159-.137.223s-.211.117-.298.16a22.45 22.45 0 0 1-.348.138c-.145.049-.279.096-.403.14-.125.037-.288.091-.488.16-.193.068-.371.133-.536.194-.166.054-.39.133-.671.237s-.463.169-.546.197c.012.02.023.051.033.093.079.333.122 1.13.129 2.392.443-.082.91-.204 1.402-.365.498-.163.804-.258.917-.284.268-.064.416-.039.443.075.052.22-.212.476-.791.77a8.607 8.607 0 0 1-1.95.697zm6.917-1.951a2.013 2.013 0 0 0-.277-.652c-.13-.201-.28-.334-.452-.398-.456.25-.786.728-.992 1.435-.2.698-.236 1.32-.107 1.865s.343.853.644.924c.485-.22.834-.668 1.047-1.347.218-.687.264-1.296.139-1.827zm-2.764.755c.117-.611.331-1.14.643-1.588.317-.456.684-.734 1.101-.833.424-.1.82-.003 1.187.291.366.287.61.689.733 1.206.12.51.121 1.063.001 1.66a3.784 3.784 0 0 1-.714 1.571c-.349.449-.767.731-1.254.847-.36.085-.7-.01-1.019-.286s-.538-.669-.659-1.179c-.122-.517-.128-1.08-.019-1.689zm7.564-1.892a2.013 2.013 0 0 0-.277-.652c-.13-.201-.28-.334-.452-.398-.456.25-.786.728-.992 1.435-.2.698-.236 1.32-.107 1.865s.343.853.644.924c.485-.22.834-.669 1.047-1.347.218-.687.264-1.296.139-1.827zm-2.763.756c.117-.611.331-1.14.643-1.588.317-.456.684-.734 1.101-.833.424-.1.82-.003 1.188.291.366.287.61.689.733 1.206.12.51.121 1.063.001 1.66a3.784 3.784 0 0 1-.714 1.571c-.349.449-.767.731-1.254.846-.36.085-.7-.01-1.019-.286s-.538-.669-.659-1.179c-.122-.517-.129-1.08-.019-1.689zm7.769-6.988c.113-.027.276.047.488.221.218.165.349.34.392.524s.079.729.107 1.635c.026.899.031 1.836.016 2.811-.02 2.188-.111 3.301-.273 3.34-.099.023-.223-.011-.371-.103-.143-.101-.226-.197-.247-.289s-.041-.282-.056-.57c-.525.872-1.045 1.369-1.561 1.491-.311.074-.627-.001-.948-.224-.314-.225-.507-.489-.579-.794-.104-.439-.11-.987-.019-1.644.096-.666.308-1.299.636-1.9s.742-.961 1.244-1.08.922.099 1.262.655c.005-1.586-.077-2.819-.248-3.699-.05-.212.002-.337.158-.374zm.068 5.491c-.09-.382-.234-.689-.43-.919-.189-.232-.375-.326-.559-.283-.304.072-.57.333-.799.784s-.381.943-.457 1.476c-.07.525-.063.965.021 1.319.03.127.1.219.211.275s.229.069.356.039c.275-.065.599-.351.972-.858.38-.509.612-1.057.696-1.645l.002-.135-.013-.053zm6.763-.636c.137.581-.009 1.131-.438 1.651-.431.513-.985.85-1.663 1.01-.671.159-1.266.117-1.786-.127-.522-.25-.819-.531-.893-.843-.05-.212-.012-.334.115-.364.113-.027.376.091.788.352.156.09.352.163.589.22.244.054.486.053.726-.004a2.374 2.374 0 0 0 1.223-.693c.328-.347.457-.669.387-.966-.045-.191-.23-.405-.555-.643s-.673-.45-1.046-.638c-.367-.197-.714-.418-1.04-.662s-.51-.455-.552-.632-.051-.373-.027-.588c.024-.215.067-.379.13-.491.203-.37.565-.751 1.084-1.143.526-.394.987-.637 1.382-.731.205-.049.394-.022.567.079s.277.226.312.375c.017.071-.044.145-.182.223s-.351.188-.638.33a5.188 5.188 0 0 0-.739.422c-.739.504-1.074.901-1.005 1.191.037.156.553.493 1.548 1.013a5.31 5.31 0 0 1 1.087.763c.347.299.555.598.625.895zm2.434.534c.032.135.125.183.281.147.268-.064.576-.215.922-.454.352-.248.549-.377.591-.387.127-.03.207.022.238.157.049.205-.107.493-.467.862-.353.368-.703.593-1.049.674-.339.08-.643.055-.913-.076-.271-.138-.43-.306-.477-.504s-.064-.46-.051-.784c.011-.332.035-.767.072-1.307.042-.548.069-1 .083-1.354-.314.156-.527.248-.64.275s-.239-.003-.379-.09c-.134-.095-.214-.196-.239-.302-.04-.17.38-.441 1.262-.815a7.73 7.73 0 0 0-.178-1.607c-.05-.212-.005-.335.137-.369.12-.028.287.014.5.128.212.107.34.256.385.447s.065.542.058 1.052c.394-.131.711-.225.952-.281.424-.1.657-.058.701.126.025.106-.071.222-.287.348-.209.124-.664.348-1.363.67-.016.594-.052 1.28-.107 2.055-.057.769-.067 1.231-.03 1.387zm4.735-5.562c.318-.075.649.018.995.28.344.255.547.514.608.776.06.255.034.538-.079.849.11.086.174.168.192.246.047.198.081.549.103 1.052.029.502.051.829.065.983a3.374 3.374 0 0 1 .05.638c.014.184-.029.287-.128.311-.127.03-.259-.055-.396-.254a3.224 3.224 0 0 1-.344-.838c-.44.949-.928 1.487-1.464 1.614-.325.077-.679.015-1.062-.186-.378-.21-.602-.463-.672-.761-.1-.425-.069-.986.095-1.682.162-.704.432-1.358.811-1.964s.787-.96 1.225-1.064zm.929 1.754c-.156-.659-.364-.957-.626-.895-.275.065-.55.34-.823.823-.275.476-.481.992-.619 1.548s-.171.979-.103 1.269a.37.37 0 0 0 .219.262.61.61 0 0 0 .375.024c.332-.079.654-.39.965-.935.31-.552.469-1.169.48-1.852-.004-.111.041-.189.135-.234l-.002-.011z" style="fill:var(--color4,#2c2c2c)"/><path fill="#bbf330" d="M30.759 19.973a.917.917 0 0 0-.642.602c-1.906 5.65-7.244 9.719-13.535 9.719a14.228 14.228 0 0 1-9.841-3.935.91.91 0 0 0-.845-.232c-.639.158-.88.934-.406 1.392a15.92 15.92 0 0 0 11.092 4.48c7.078 0 13.081-4.605 15.182-10.986.206-.626-.368-1.199-1.006-1.041zM1.867 14.15a.906.906 0 0 0 .665-.725c1.211-6.664 7.039-11.72 14.051-11.72 4.559 0 8.617 2.137 11.232 5.464a.901.901 0 0 0 .923.328c.584-.144.847-.825.478-1.301-2.924-3.771-7.495-6.198-12.633-6.198C8.702-.002 2.152 5.709.84 13.223c-.104.592.445 1.07 1.027.926zm38.748-8.819c-3.777 7.241-5.435 2.465-10.752 5.271.532-8.406 6.163-3.291 10.752-5.271z" style="fill:var(--color5,#bbf330)"/></symbol><symbol id="icon-stars" viewBox="0 0 202 32"><path fill="#ffe550" d="M15.421 1.037c.584-1.383 2.575-1.383 3.159 0l3.449 8.164a1.71 1.71 0 0 0 1.443 1.032l8.952.707c1.517.12 2.132 1.983.976 2.958l-6.821 5.752a1.67 1.67 0 0 0-.551 1.67l2.084 8.6c.353 1.457-1.257 2.609-2.556 1.828l-7.664-4.609a1.734 1.734 0 0 0-1.783 0l-7.664 4.609c-1.299.781-2.909-.371-2.556-1.828l2.084-8.6a1.67 1.67 0 0 0-.551-1.67L.601 13.898c-1.156-.975-.541-2.838.976-2.958l8.952-.707a1.71 1.71 0 0 0 1.443-1.032l3.449-8.164zm42 0c.584-1.383 2.575-1.383 3.159 0l3.449 8.164a1.71 1.71 0 0 0 1.443 1.032l8.952.707c1.517.12 2.132 1.983.976 2.958l-6.821 5.752a1.67 1.67 0 0 0-.551 1.67l2.084 8.6c.353 1.457-1.257 2.609-2.556 1.828l-7.664-4.609a1.734 1.734 0 0 0-1.783 0l-7.664 4.609c-1.299.781-2.909-.371-2.556-1.828l2.084-8.6a1.67 1.67 0 0 0-.551-1.67l-6.821-5.752c-1.156-.975-.541-2.838.976-2.958l8.952-.707a1.71 1.71 0 0 0 1.443-1.032l3.449-8.164zm42 0c.584-1.383 2.575-1.383 3.159 0l3.449 8.164a1.71 1.71 0 0 0 1.443 1.032l8.952.707c1.517.12 2.132 1.983.976 2.958l-6.821 5.752a1.67 1.67 0 0 0-.551 1.67l2.084 8.6c.353 1.457-1.257 2.609-2.556 1.828l-7.664-4.609a1.734 1.734 0 0 0-1.783 0l-7.664 4.609c-1.299.781-2.909-.371-2.556-1.828l2.084-8.6a1.67 1.67 0 0 0-.551-1.67l-6.821-5.752c-1.156-.975-.541-2.838.976-2.958l8.952-.707a1.71 1.71 0 0 0 1.443-1.032l3.449-8.164zm42 0c.584-1.383 2.575-1.383 3.159 0l3.449 8.164a1.71 1.71 0 0 0 1.443 1.032l8.952.707c1.517.12 2.132 1.983.976 2.958l-6.821 5.752a1.67 1.67 0 0 0-.551 1.67l2.084 8.6c.353 1.457-1.257 2.609-2.556 1.828l-7.664-4.609a1.734 1.734 0 0 0-1.783 0l-7.664 4.609c-1.299.781-2.909-.371-2.556-1.828l2.084-8.6a1.67 1.67 0 0 0-.551-1.67l-6.821-5.752c-1.156-.975-.541-2.838.976-2.958l8.952-.707a1.71 1.71 0 0 0 1.443-1.032l3.449-8.164zm42 0c.584-1.383 2.575-1.383 3.159 0l3.449 8.164a1.71 1.71 0 0 0 1.443 1.032l8.953.707c1.516.12 2.132 1.983.976 2.958l-6.821 5.752a1.67 1.67 0 0 0-.551 1.67l2.084 8.6c.353 1.457-1.257 2.609-2.556 1.828l-7.664-4.609a1.734 1.734 0 0 0-1.783 0l-7.664 4.609c-1.299.781-2.909-.371-2.556-1.828l2.084-8.6a1.67 1.67 0 0 0-.551-1.67l-6.821-5.752c-1.156-.975-.541-2.838.976-2.958l8.952-.707a1.71 1.71 0 0 0 1.443-1.032l3.449-8.164z" style="fill:var(--color3,#ffe550)"/></symbol></defs></svg>