<svg width="56" height="48" viewBox="0 0 56 48" fill="none" xmlns="http://www.w3.org/2000/svg">
<g filter="url(#filter0_d_480_6538)">
<rect x="52" width="40" height="48" rx="8" transform="rotate(90 52 0)" fill="white"/>
<path d="M38.5497 19.095L24.6172 5.81997C24.3848 5.59836 24.0759 5.47473 23.7547 5.47473C23.4336 5.47473 23.1247 5.59836 22.8923 5.81997L22.8772 5.83497C22.7642 5.9424 22.6741 6.07172 22.6126 6.21505C22.551 6.35838 22.5193 6.51274 22.5193 6.66872C22.5193 6.8247 22.551 6.97905 22.6126 7.12239C22.6741 7.26572 22.7642 7.39504 22.8772 7.50247L35.9972 20.0025L22.8772 32.4975C22.7642 32.6049 22.6741 32.7342 22.6126 32.8776C22.551 33.0209 22.5193 33.1752 22.5193 33.3312C22.5193 33.4872 22.551 33.6416 22.6126 33.7849C22.6741 33.9282 22.7642 34.0575 22.8772 34.165L22.8922 34.18C23.1247 34.4016 23.4336 34.5252 23.7547 34.5252C24.0759 34.5252 24.3848 34.4016 24.6172 34.18L38.5497 20.905C38.6723 20.7882 38.7698 20.6478 38.8365 20.4923C38.9031 20.3367 38.9375 20.1692 38.9375 20C38.9375 19.8307 38.9031 19.6632 38.8365 19.5077C38.7698 19.3521 38.6723 19.2117 38.5497 19.095Z" fill="#7EB101"/>
</g>
<defs>
<filter id="filter0_d_480_6538" x="0" y="0" width="56" height="48" filterUnits="userSpaceOnUse" color-interpolation-filters="sRGB">
<feFlood flood-opacity="0" result="BackgroundImageFix"/>
<feColorMatrix in="SourceAlpha" type="matrix" values="0 0 0 0 0 0 0 0 0 0 0 0 0 0 0 0 0 0 127 0" result="hardAlpha"/>
<feOffset dy="4"/>
<feGaussianBlur stdDeviation="2"/>
<feComposite in2="hardAlpha" operator="out"/>
<feColorMatrix type="matrix" values="0 0 0 0 0 0 0 0 0 0 0 0 0 0 0 0 0 0 0.06 0"/>
<feBlend mode="normal" in2="BackgroundImageFix" result="effect1_dropShadow_480_6538"/>
<feBlend mode="normal" in="SourceGraphic" in2="effect1_dropShadow_480_6538" result="shape"/>
</filter>
</defs>
</svg>
